<svg data-logo="logo" xmlns="http://www.w3.org/2000/svg" viewBox="0 0 198 43">
        <g style="opacity: 1;" id="logogram" transform="translate(0, 1) rotate(0)"><path d="M37.5569 2.04585C38.4821 1.08338 39.7385 0.542663 41.0469 0.542664C46.9335 0.542664 52.4811 0.542667 57.9442 0.542678C68.932 0.542701 74.4342 14.3629 66.6646 22.4456L49.7407 40.0517C48.9637 40.86 47.6352 40.2875 47.6352 39.1444V23.6376L49.591 21.6029C51.145 19.9864 50.0444 17.2223 47.8468 17.2223H22.9684L37.5569 2.04585Z" fill="#3A04FF"></path><path d="M33.0467 38.8142C32.1215 39.7767 30.8651 40.3174 29.5567 40.3174C23.6701 40.3174 18.1225 40.3174 12.6594 40.3174C1.67159 40.3173 -3.83061 26.4972 3.93897 18.4144L20.8629 0.808361C21.6399 8.48472e-05 22.9684 0.57254 22.9684 1.71562L22.9684 17.2223L21.0126 19.2571C19.4586 20.8737 20.5592 23.6377 22.7568 23.6377L47.6352 23.6376L33.0467 38.8142Z" fill="#3A04FF"></path></g>
        <g style="opacity: 1;" id="logotype" transform="translate(77, 8)"><path fill="#2307f2" d="M13.52 27L8.31 27L8.31 1.54L18.24 1.54Q21.14 1.54 23.18 2.64Q25.21 3.74 26.28 5.68Q27.35 7.62 27.35 10.13L27.35 10.13Q27.35 12.66 26.26 14.58Q25.17 16.51 23.12 17.59Q21.06 18.68 18.12 18.68L18.12 18.68L11.73 18.68L11.73 14.47L17.28 14.47Q18.89 14.47 19.92 13.92Q20.95 13.36 21.46 12.39Q21.96 11.41 21.96 10.13L21.96 10.13Q21.96 8.85 21.46 7.88Q20.95 6.90 19.91 6.37Q18.87 5.84 17.26 5.84L17.26 5.84L13.52 5.84L13.52 27ZM33.72 27L28.59 27L28.59 7.89L33.55 7.89L33.55 11.23L33.75 11.23Q34.28 9.45 35.52 8.54Q36.76 7.64 38.37 7.64L38.37 7.64Q38.76 7.64 39.21 7.68Q39.66 7.72 40.02 7.81L40.02 7.81L40.02 12.39Q39.68 12.27 39.03 12.20Q38.38 12.13 37.80 12.13L37.80 12.13Q36.64 12.13 35.70 12.64Q34.76 13.14 34.24 14.04Q33.72 14.93 33.72 16.13L33.72 16.13L33.72 27ZM45.70 27L40.57 27L40.57 7.89L45.70 7.89L45.70 27ZM43.13 5.40L43.13 5.40Q41.97 5.40 41.15 4.63Q40.33 3.86 40.33 2.77L40.33 2.77Q40.33 1.67 41.15 0.90Q41.97 0.13 43.13 0.13L43.13 0.13Q44.29 0.13 45.12 0.90Q45.95 1.66 45.95 2.77L45.95 2.77Q45.95 3.86 45.12 4.63Q44.29 5.40 43.13 5.40ZM52.91 15.94L52.91 15.94L52.91 27L47.78 27L47.78 7.89L52.61 7.89L52.70 12.66L52.39 12.66Q53.14 10.27 54.67 8.96Q56.20 7.65 58.63 7.65L58.63 7.65Q60.61 7.65 62.08 8.52Q63.55 9.38 64.37 11.00Q65.19 12.61 65.19 14.85L65.19 14.85L65.19 27L60.07 27L60.07 15.74Q60.07 13.96 59.15 12.95Q58.24 11.94 56.61 11.94L56.61 11.94Q55.54 11.94 54.69 12.41Q53.85 12.88 53.38 13.77Q52.91 14.66 52.91 15.94ZM65.45 7.89L76.78 7.89L76.78 11.81L65.45 11.81L65.45 7.89ZM68.08 21.86L68.08 3.35L73.21 3.35L73.21 21.41Q73.21 22.32 73.61 22.75Q74.01 23.19 74.95 23.19L74.95 23.19Q75.24 23.19 75.77 23.11Q76.30 23.04 76.57 22.97L76.57 22.97L77.31 26.81Q76.45 27.07 75.61 27.17Q74.76 27.27 73.99 27.27L73.99 27.27Q71.12 27.27 69.60 25.87Q68.08 24.47 68.08 21.86L68.08 21.86ZM82.96 27L77.84 27L77.84 7.89L82.96 7.89L82.96 27ZM80.40 5.40L80.40 5.40Q79.24 5.40 78.42 4.63Q77.60 3.86 77.60 2.77L77.60 2.77Q77.60 1.67 78.42 0.90Q79.24 0.13 80.40 0.13L80.40 0.13Q81.56 0.13 82.39 0.90Q83.22 1.66 83.22 2.77L83.22 2.77Q83.22 3.86 82.39 4.63Q81.56 5.40 80.40 5.40ZM96.26 27L90.43 27L83.39 7.89L88.84 7.89L92.05 17.81Q92.63 19.67 93.07 21.57Q93.50 23.46 93.97 25.50L93.97 25.50L92.87 25.50Q93.32 23.46 93.74 21.57Q94.17 19.67 94.75 17.81L94.75 17.81L97.93 7.89L103.31 7.89L96.26 27ZM109.09 27.38L109.09 27.38Q107.28 27.38 105.83 26.74Q104.39 26.09 103.56 24.82Q102.73 23.55 102.73 21.65L102.73 21.65Q102.73 20.06 103.32 18.98Q103.91 17.91 104.93 17.26Q105.94 16.61 107.23 16.27Q108.52 15.93 109.94 15.79L109.94 15.79Q111.60 15.62 112.62 15.47Q113.63 15.33 114.10 15.01Q114.57 14.70 114.57 14.08L114.57 14.08L114.57 13.99Q114.57 13.17 114.23 12.61Q113.89 12.05 113.22 11.75Q112.56 11.45 111.58 11.45L111.58 11.45Q110.59 11.45 109.86 11.75Q109.12 12.05 108.66 12.54Q108.20 13.04 107.98 13.65L107.98 13.65L103.28 12.87Q103.77 11.21 104.92 10.05Q106.06 8.88 107.76 8.27Q109.46 7.65 111.58 7.65L111.58 7.65Q113.14 7.65 114.59 8.02Q116.04 8.39 117.20 9.16Q118.35 9.93 119.03 11.16Q119.70 12.39 119.70 14.13L119.70 14.13L119.70 27L114.85 27L114.85 24.35L114.68 24.35Q114.22 25.24 113.45 25.91Q112.68 26.59 111.59 26.98Q110.51 27.38 109.09 27.38ZM110.54 23.77L110.54 23.77Q111.75 23.77 112.67 23.29Q113.58 22.81 114.10 21.99Q114.61 21.17 114.61 20.16L114.61 20.16L114.61 18.10Q114.39 18.27 113.93 18.40Q113.46 18.54 112.90 18.64Q112.34 18.75 111.79 18.83Q111.24 18.92 110.81 18.97L110.81 18.97Q109.87 19.10 109.16 19.41Q108.44 19.72 108.05 20.22Q107.65 20.73 107.65 21.51L107.65 21.51Q107.65 22.25 108.03 22.75Q108.41 23.26 109.05 23.51Q109.69 23.77 110.54 23.77Z"></path></g>
        
      </svg>